<svg width="1200" height="630" viewBox="0 0 1200 630" fill="none" xmlns="http://www.w3.org/2000/svg">
  <rect width="1200" height="630" fill="#6C5CE7"/>
  <rect x="50" y="50" width="1100" height="530" rx="20" fill="#5A4ECF"/>
  
  <!-- Logo -->
  <g transform="translate(100, 150)">
    <rect width="80" height="80" rx="10" fill="white"/>
    <path d="M10 25H20L30 55H26L23.5 45H6.5L4 55H0L10 25ZM8.25 41H21.75L15 29L8.25 41Z" fill="#6C5CE7"/>
    <path d="M33 55V25H37V51H55V55H33Z" fill="#6C5CE7"/>
    <path d="M58 55V25H62V55H58Z" fill="#6C5CE7"/>
  </g>
  
  <!-- Text -->
  <text x="200" y="180" font-family="Arial, sans-serif" font-size="70" font-weight="700" fill="white">WebBuzz</text>
  <text x="200" y="240" font-family="Arial, sans-serif" font-size="32" font-weight="400" fill="rgba(255,255,255,0.8)">Web, Design &amp; Marketing</text>
  
  <!-- Tagline -->
  <text x="100" y="350" font-family="Arial, sans-serif" font-size="40" font-weight="600" fill="white">Your 24/7 digital solutions company</text>
  
  <!-- Services -->
  <g transform="translate(100, 420)">
    <rect x="0" y="0" width="300" height="80" rx="10" fill="rgba(255,255,255,0.2)"/>
    <text x="150" y="48" font-family="Arial, sans-serif" font-size="28" font-weight="600" fill="white" text-anchor="middle">Web Development</text>
  </g>
  
  <g transform="translate(450, 420)">
    <rect x="0" y="0" width="300" height="80" rx="10" fill="rgba(255,255,255,0.2)"/>
    <text x="150" y="48" font-family="Arial, sans-serif" font-size="28" font-weight="600" fill="white" text-anchor="middle">Graphic Designing</text>
  </g>
  
  <g transform="translate(800, 420)">
    <rect x="0" y="0" width="300" height="80" rx="10" fill="rgba(255,255,255,0.2)"/>
    <text x="150" y="48" font-family="Arial, sans-serif" font-size="28" font-weight="600" fill="white" text-anchor="middle">Digital Marketing</text>
  </g>
  
  <!-- URL -->
  <text x="600" y="580" font-family="Arial, sans-serif" font-size="24" font-weight="400" fill="rgba(255,255,255,0.8)" text-anchor="middle">www.webbuzz.in</text>
</svg>
